<?xml version="1.0" encoding="UTF-8"?>
<svg id="Layer_1" data-name="Layer 1" xmlns="http://www.w3.org/2000/svg" viewBox="0 0 32.02872 5.08389">
  <path d="M14.78834,2.41506h-2.18711c-.19398.00034-.3511.15763-.35093.35195.00034.19364.15729.35059.35093.35059h1.72713c-.23186.81532-.88972,1.26375-1.77945,1.26375-1.08404,0-1.83176-.77762-1.83176-1.83924s.74772-1.83924,1.83176-1.83924c.67298,0,1.20634.2908,1.51345.76844.06998.10531.18854.16782.31492.16612.21097-.00068.38167-.17224.38116-.3832-.00034-.08051-.02582-.15865-.07321-.22387-.45641-.63799-1.21297-1.03037-2.13632-1.03037-1.52517,0-2.60173,1.07657-2.60173,2.54211,0,1.46521,1.07657,2.54177,2.60173,2.54177,1.42869,0,2.4723-.94781,2.59273-2.27611.00102-.01257.0017-.02514.0017-.03805,0-.19568-.15899-.35467-.35501-.35467ZM7.83005.0975c-.21063,0-.38133.17054-.38133.38116v4.1269c.00017.21063.17105.38116.3815.38116.21046-.00034.38082-.17088.38116-.38116V.47866c0-.21063-.17088-.38116-.38133-.38116ZM18.87464,0c-1.32337,0-2.06362.78509-2.06362,2.02642v2.57914c0,.21063.17088.38116.3815.38116.21046,0,.38116-.17054.38116-.38116v-2.57914c0-.8228.4486-1.32354,1.30095-1.32354.85966,0,1.30843.50075,1.30843,1.32354v2.57914c-.00034.21063.17003.3815.38065.38184.21046.00034.3815-.1702.38184-.38082v-2.58016c0-1.24133-.74008-2.02642-2.07092-2.02642ZM4.92835,2.14532c-.00764-.00068-.01529-.00068-.0231-.00068h-.93525c-.21097,0-.38167.17156-.38133.38252.00034.21063.17088.38116.38133.3815h.43994c-.12026.27347-.30829.51162-.5461.69201-.69778.53777-1.8783.67502-3.41366.39747-.20774-.03771-.40647.10022-.44401.30779s.10022.4063.30779.44401c.51858.09784,1.04463.14948,1.57239.15389,1.03342,0,1.85877-.23814,2.46347-.71307.52079-.39849.85847-.99028.93677-1.64118.01274-.21063-.14761-.3917-.35823-.40427ZM.36355,2.90765c.00781.00068.01546.00102.0231.00102h.93525c.21097.00034.38218-.17054.38252-.3815s-.17037-.38252-.3815-.38252h-.44078c.12026-.27347.30812-.51162.5461-.69235.69761-.53777,1.87796-.67536,3.41366-.39747.20757.03771.4063-.10022.44384-.30779.03771-.20757-.10022-.4063-.30779-.44367C3.18542-.0214,1.82774.1668.94226.86221.42147,1.2607.08362,1.85249.00549,2.50339c-.01291.21063.14744.3917.35806.40427ZM26.23532.12162c-.04246-.01597-.08748-.02412-.13283-.02412-.15814,0-.29946.0992-.35348.24799l-1.34461,3.71516c-.0034.00883-.01291.01359-.02174.01019-.00476-.0017-.00849-.00544-.01019-.01019l-1.34461-3.71516c-.05402-.1488-.19534-.24799-.35365-.24799h-.02157c-.20757,0-.3759.16816-.3759.37573,0,.04552.00832.0907.02446.13317l1.51277,3.98931c.11856.31288.46847.47051.78152.35161.16256-.06149.29063-.1899.35212-.35229l1.50665-3.98898c.07321-.19432-.0248-.41106-.21895-.48444ZM29.89053,0c-1.36822,0-2.11577.81498-2.11577,2.10863v2.50814c0,.20451.16578.36995.36995.36995.20451,0,.37029-.16544.37029-.36995v-1.17746h2.75121v1.17746c0,.20451.16561.36995.37012.36995h.02242c.20434,0,.36995-.16544.36995-.36995v-2.50814c0-1.29365-.75519-2.10863-2.13819-2.10863ZM31.26622,2.73643h-2.75121v-.6278c0-.88225.46338-1.40576,1.37552-1.40576s1.37569.52351,1.37569,1.40576v.6278Z" style="fill: #ffffff; stroke-width: 0px;"/>
</svg>