<?xml version="1.0" encoding="UTF-8"?>
<svg id="Layer_1" data-name="Layer 1" xmlns="http://www.w3.org/2000/svg" viewBox="0 0 29.21948 4.51215">
  <path d="M18.93699,1.52954c-.16582-.23393-.39-.35539-.66338-.35539-.13445-.0045-.2689.02699-.3899.08548-.11204.05848-.21074.13946-.29141.23843-.08067.11247-.14341.23842-.17926.36889-.04482.15296-.06274.31041-.06274.46786-.00448.17095.02241.34191.07171.50836.04033.13945.11204.26541.20167.37788.08077.10347.18385.18445.30485.23843s.25545.08548.3899.08097c.27796,0,.4886-.11247.62304-.3329l.00448.27442h.57375V.41388h-.58271v1.11566ZM18.82495,2.88364c-.08963.11246-.2196.17995-.36311.17995-.14341,0-.28234-.06749-.36301-.18895-.09411-.12596-.13893-.29241-.13893-.49035,0-.46337.1703-.69279.5109-.6973.33174,0,.49756.24293.49756.72878.00896.16645-.04482.3329-.14341.46787ZM16.86181,1.40808c-.08525-.08097-.18385-.13946-.29589-.17094-.14341-.04049-.29579-.06299-.44816-.05848-.15238-.0045-.30933.018-.45722.05848-.11204.03148-.21512.08547-.30027.16195-.07619.06748-.13445.15295-.1703.25193-.03585.10346-.05378.21143-.05826.3194h.55124c.00896-.08998.0493-.17545.11204-.24293.05826-.06298.15696-.08997.29589-.08997.09859-.0045.19271.01799.27786.06298.0986.05848.13445.18445.07619.28342-.01345.02249-.02689.04049-.0493.05847-.0493.036-.15237.06299-.30027.08548-.14789.0225-.28692.04499-.41241.07198-.11652.02249-.22408.06298-.32716.12146-.08963.05398-.16582.13047-.21512.22494-.05826.12146-.08525.25193-.07619.38688-.00458.16645.05826.3284.17926.44537.121.11247.30923.17095.56468.17095.13455.00449.27348-.0225.39896-.07198.10756-.04049.20167-.10347.27786-.18895.00448.06748.01793.13497.03585.20245l.55134-.0045v-1.42157c0-.12596-.01345-.25643-.0493-.37789-.03137-.10346-.08515-.20244-.16134-.27892ZM16.47629,2.63172c0,.06748-.01344.13046-.04482.18894-.02689.05848-.06722.10797-.11204.15296-.0493.04499-.10756.08097-.1703.10347-.06722.02699-.13893.04049-.21064.04049-.19281,0-.28692-.08548-.28692-.25193-.00448-.08548.03137-.16645.09411-.22494.06274-.04948.17926-.09447.34967-.12596.10756-.02249.19271-.04049.25097-.05848.0493-.0135.09411-.04049.12997-.07197v.24742ZM8.27849,2.3393c-.10309-.05848-.21067-.10347-.32272-.13496-.13446-.04049-.3003-.08548-.49304-.13946-.09412-.0225-.18825-.05848-.27341-.10347-.08068-.03599-.11653-.13046-.08068-.21143.01793-.036.04483-.06299.08068-.08098.08964-.03599.18377-.04948.27789-.04498.09862-.0045.2017.01799.28686.07197.06723.05848.10757.13946.11653.22494l.57372-.00899c-.01793-.23393-.09861-.41388-.24652-.54434-.14791-.13046-.38547-.19794-.70817-.19794-.1524,0-.30031.018-.44821.05399-.10758.02699-.20618.07647-.29583.13945-.07172.05399-.12998.12147-.16584.20245-.03585.07647-.05378.15745-.05378.24292s.01344.17545.04033.25643c.02689.08548.08068.15745.14791.21143.09412.07648.19721.13497.30926.17545.17032.06298.34961.11696.52889.15295.09413.01799.18826.04948.27342.09447.06274.04049.09412.10797.08964.17995,0,.07647-.04931.13946-.12102.16195-.08964.04049-.19273.05848-.29133.05398-.11654.0045-.22859-.02249-.3272-.08547-.08068-.05399-.12998-.14846-.12549-.24744h-.60958c.00449.11247.03138.22494.08068.32391.05379.09897.1255.18445.21515.24742.10309.07198.21514.12596.33616.15746.14343.03599.29133.05398.43925.05398.3272,0,.5782-.06748.74404-.19794.16135-.11696.251-.30141.251-.49935.00448-.10797-.01345-.21593-.05379-.3149-.03586-.08097-.09861-.14845-.1748-.19344ZM10.69431,1.49806c-.1703-.20694-.42575-.32841-.69469-.31941-.27789,0-.48854.11247-.62301.3329l-.00448-.27442h-.57372v3.07708h.58268v-1.12017c.14791.22494.39891.3554.66336.3509.13446.0045.26893-.02699.38993-.08548.11204-.05848.21064-.13946.2913-.23843.08077-.11247.14351-.23393.17937-.36889.04482-.15296.06274-.31041.06274-.46786.00448-.17095-.02241-.34191-.07171-.50836-.04482-.13945-.11204-.26541-.20177-.37788ZM9.84723,3.04109c-.33167,0-.49751-.24292-.49751-.72878-.00896-.16645.04482-.3329.14342-.46786.08516-.11247.21963-.17995.36305-.17995.14343,0,.28238.06748.36307.18894.09411.12596.13893.29241.13893.49036,0,.46336-.1703.69279-.51096.69729ZM14.59829,1.51155c-.17926-.22494-.4393-.3329-.78438-.3329-.15686-.0045-.31371.02249-.46171.08097-.12997.04948-.24649.12596-.3406.22943-.09411.10347-.16582.22494-.21063.35989-.0493.15295-.07619.31041-.07171.47236,0,.81876.37197,1.22364,1.1205,1.22364.2196.0045.4393-.05848.61856-.18894.17926-.13047.30923-.3194.36301-.53535h-.6096c-.02241.07648-.07171.14396-.14341.18445-.07619.04499-.16582.06748-.25545.06748-.13445.0045-.26441-.04948-.35405-.14845-.09411-.11247-.14799-.25643-.14799-.40488h1.54636c0-.44987-.08963-.78276-.2689-1.0077ZM13.33428,2.14136c.00448-.13496.05836-.26542.14799-.36438.08067-.08548.18823-.13047.30475-.13047.05826,0,.11652.00899.1703.03149.05378.01799.10308.04948.14341.08997.04482.04499.08067.09447.10308.15296.02699.06748.04044.14396.04492.21594l-.91445.00449ZM12.31237,1.18764c-.05826.0045-.11652.0225-.1703.04499-.05826.02249-.11652.05848-.16582.09897-.05826.04948-.11204.11247-.15237.17995v-.26992h-.55582v2.24933l.59167-.0045v-1.16965c0-.36439.17926-.54434.54227-.54434.05378,0,.11214.0045.16592.0135v-.60732h-.07619c-.06284,0-.12111.0045-.17937.00899ZM2.72514.95821l-.95469-.95821L0,1.77697l2.72514,2.73518,2.72961-2.73518-1.77043-1.77697-.95917.95821ZM2.72514,3.6934L.81575,1.77697l.9547-.95822.95469.95822.95021-.95372.95917.95821-1.90938,1.91193ZM26.45354,1.49355c-.10308-.10346-.22866-.18445-.36311-.23843-.15237-.05848-.31371-.08997-.47953-.08548-.16582-.00449-.33174.02699-.48411.08548-.13893.05398-.25993.13497-.36301.24293-.10308.10797-.18375.23843-.23304.37788-.05388.15746-.08077.32391-.08077.49036s.02689.3284.07629.48586c.09411.28791.31371.51285.59157.62532.15685.06298.32278.08997.49308.08548.16134,0,.32267-.02699.47505-.08548.13893-.05398.26003-.13497.36311-.24293.10308-.10797.17926-.23842.22856-.37788.05378-.15746.08067-.32391.08067-.49036.00448-.16645-.02689-.3374-.08067-.49485-.04481-.14396-.121-.26992-.22408-.37789ZM25.61538,3.05459c-.36311,0-.54686-.22943-.54686-.69279s.18375-.68829.54686-.68829c.36301,0,.54676.22943.54676.68829s-.18375.69279-.54676.69279ZM29.14729,1.87594c-.04033-.13945-.11204-.26541-.20167-.37788-.1704-.20694-.42585-.32841-.69475-.31941-.27796,0-.4886.11247-.62304.3329l-.00448-.27442h-.57375v3.07708h.58271v-1.12017c.14789.22494.39897.3554.66338.3509.13445.0045.26889-.02699.3899-.08548.11204-.05848.21074-.13946.2914-.23843.08067-.11247.14341-.23842.17926-.36889.04481-.15296.06274-.31041.06274-.46786.00448-.17095-.02241-.34191-.07171-.50836ZM28.09849,3.04109c-.33174,0-.49756-.24292-.49756-.72878-.00896-.16645.04481-.3329.14341-.46786.08515-.11247.2196-.17995.36311-.17995.14341,0,.28234.06748.36301.18894.09411.12596.13893.29241.13893.49036,0,.46336-.1703.69279-.5109.69729ZM21.61729,2.3483c-.10308-.05847-.21064-.10346-.32268-.13496-.13445-.03599-.29589-.08548-.49308-.13946-.09411-.02249-.18823-.05848-.27338-.10346-.05826-.02699-.09411-.08098-.09411-.14396-.00448-.06298.03585-.12596.09411-.14845.08963-.03149.18375-.04949.27786-.04499.12549,0,.22408.02249.28682.07198.06733.05848.10766.13946.11663.22494l.57364-.009c-.00448-.20694-.09411-.40488-.24649-.54433-.14789-.13047-.38542-.19794-.70819-.19794-.15238-.0045-.30027.0135-.44816.05398-.10756.02699-.20626.07647-.29589.13946-.07171.05398-.12997.12146-.16582.20244-.03585.07648-.05378.15746-.05378.24293s.01344.17544.04033.25642c.03137.08097.08067.15296.14789.21144.09411.07647.19719.13496.30933.17544.1703.06299.34956.11697.52883.15296.09411.018.18823.04949.27348.09447.05826.04049.09411.10798.08963.17995,0,.07648-.0493.13946-.1211.16196-.09411.03599-.19271.05398-.2913.05398-.11652.00449-.22856-.02699-.32716-.08548-.08067-.05398-.12997-.14845-.12548-.24742h-.6096c0,.22494.11204.43636.29579.56683.10308.07198.21522.12596.33622.15745.14341.04049.2913.05848.4392.05399.32726,0,.57375-.06749.74405-.19794.15686-.11697.25097-.30141.25097-.49935.00448-.10797-.01345-.21144-.05378-.31041-.03585-.08097-.09859-.14845-.17478-.19344ZM23.94803,1.36759c-.14341-.12596-.33174-.18894-.5603-.18894-.14341,0-.28234.03599-.40783.09897-.05378.03148-.10756.06748-.15248.11247-.04033.04049-.07619.08547-.09859.13945V.41388h-.59157v3.07709h.59157v-1.29562c0-.07197.00896-.14395.03137-.21143.01793-.06299.0493-.12147.08973-.17545.04034-.04948.08963-.08997.14341-.11696.06274-.03149.12997-.04499.19719-.04499.13445,0,.23304.03149.29579.09447.05826.06299.08963.17995.08963.3509v1.39458h.58719v-1.59253c0-.22494-.07171-.40038-.21512-.52634Z" style="fill: #ffffff; stroke-width: 0px;"/>
</svg>