<?xml version="1.0" encoding="UTF-8"?>
<svg id="Layer_1" data-name="Layer 1" xmlns="http://www.w3.org/2000/svg" viewBox="0 0 30.55479 6.98243">
  <path d="M1.26952,4.33797c0,.05922.04805.10725.10731.10725h1.0549c.05926,0,.10731-.04803.10731-.10725v-.52706h.52746c.05924,0,.10731-.04803.10731-.10725v-.41984c0-.05922-.04807-.10722-.10731-.10722h-1.68967c-.05926,0-.10731.048-.10731.10722v1.05415ZM1.26952,2.01158c0-.05922-.04805-.10723-.10731-.10723H.10731c-.05926,0-.10731.04802-.10731.10723v1.05415c0,.05922.04805.10722.10731.10722h.42014c.05926,0,.10731-.048.10731-.10722v-.52708h.52745c.05926,0,.10731-.048.10731-.10722v-.41984ZM1.90428,5.81741c0-.05922-.04805-.10722-.10731-.10722h-.42014c-.05926,0-.10731.048-.10731.10722v.41984c0,.05922.04805.10725.10731.10725h.42014c.05926,0,.10731-.04803.10731-.10725v-.41984ZM9.41409,1.90435h-1.05491c-.05924,0-.10731.04802-.10731.10723v.41984c0,.05922.04807.10722.10731.10722h.52746v.52708c0,.05922.04805.10722.10731.10722h.42014c.05926,0,.10731-.048.10731-.10722v-1.05415c0-.05922-.04805-.10723-.10731-.10723ZM8.14456,3.17296h-1.68965c-.05926,0-.10731.04803-.10731.10725v.41984c0,.0592.04805.10722.10731.10722h.52746v.52708c0,.0592.04805.10722.10731.10722h1.05489c.05926,0,.10731-.04803.10731-.10722v-1.05415c0-.05922-.04805-.10725-.10731-.10725ZM7.50982,6.34812h-.52746v-.52706c0-.05922-.04805-.10725-.10731-.10725h-.52746v-1.16137c0-.05922-.04805-.10722-.10731-.10722h-.52743v-1.16139c0-.05922-.04807-.10722-.10731-.10722h-1.68968c-.05924,0-.10731.048-.10731.10722v1.16139h-.52743c-.05928,0-.10731.048-.10731.10722v1.16137h-.52746c-.05926,0-.10731.04803-.10731.10725v.52706h-.52745c-.05926,0-.10731.04803-.10731.10725v.41984c0,.05922.04805.10722.10731.10722h1.05491c.05924,0,.10731-.048.10731-.10722v-.52708h.52743c.05926,0,.10731-.048.10731-.10722v-1.16139h1.9043v1.16139c0,.05922.04805.10722.10729.10722h.52746v.52708c0,.05922.04805.10722.10731.10722h1.05491c.05924,0,.10731-.048.10731-.10722v-.41984c0-.05922-.04807-.10725-.10731-.10725ZM8.14456,5.71019h-.42012c-.05926,0-.10731.048-.10731.10722v.41984c0,.05922.04805.10725.10731.10725h.42012c.05926,0,.10731-.04803.10731-.10725v-.41984c0-.05922-.04805-.10722-.10731-.10722Z" style="fill: #ffffff; fill-rule: evenodd; stroke-width: 0px;"/>
  <path d="M2.64622,1.90428h4.22872c.05924,0,.10729-.04805.10729-.10731v-.42014c0-.05928-.04805-.10731-.10729-.10731h-.52746v-.52745c0-.05925-.04805-.10731-.10731-.10731h-.52746V.10731c0-.05926-.04805-.10731-.10731-.10731h-1.68966c-.05926,0-.10731.04805-.10731.10731v.52745h-.52746c-.05926,0-.10731.04805-.10731.10731v.52745h-.52746c-.05924,0-.10731.04803-.10731.10731v.42014c0,.05926.04807.10731.10731.10731Z" style="fill: #ffffff; fill-rule: evenodd; stroke-width: 0px;"/>
  <path d="M20.47859,3.10983c-.33393,0-.6356.13738-.84784.35767-.20738-.22115-.50276-.35938-.83012-.35938-.18368,0-.37109.06725-.51563.16444v-.03221c0-.04645-.03856-.08178-.08342-.08178h-.46568c-.04456,0-.08342.03533-.08342.08178v2.31995c0,.04645.03858.08178.08342.08178h.46682c.04458,0,.08342-.03533.08342-.08178v-1.3173c0-.28386.23053-.51358.51449-.51358.28423,0,.51447.23.51447.51358v1.3173c0,.04645.03856.08178.08342.08178h.46876c.04456,0,.08342-.03533.08342-.08178v-1.31645c0-.28244.23537-.51329.52789-.51329s.52791.23086.52791.51329v1.31616c0,.04645.03856.08178.08342.08178h.46848c.04486,0,.08342-.03533.08342-.08178v-1.31616c-.00028-.62728-.52191-1.13403-1.16322-1.13403ZM23.97104,4.35587c-.17783-.10801-.40607-.15988-.60507-.20491l-.00393-.00085c-.14445-.03277-.27144-.06184-.36287-.1046-.09055-.04218-.13157-.09062-.13157-.15732,0-.05756.0216-.10858.0731-.14877.0528-.04133.1403-.07325.27537-.08121.2302,0,.40847.00541.52913.01082.06044.00257.10648.00541.13703.00742.01549.00113.02706.0017.03491.00227.00393.00028.00676.00057.00851.00057l.00196.00028h.00066l.00196.00028h.00196c.03579,0,.0683-.00683.09055-.02992.01964-.02053.02378-.04674.02553-.05957,0-.00085.00022-.0017.00022-.00227.00087-.00543.00153-.00943.00218-.01311l.00131-.00484v-.28586c0-.03478-.0024-.0667-.01571-.09121-.01658-.03048-.04429-.04019-.06655-.04504l-.00218-.00028-.00196-.00028h-.00087l-.00218-.00028c-.00196-.00028-.0048-.00057-.00851-.00085-.00785-.00085-.0192-.00199-.03426-.00343-.03077-.00284-.07637-.00655-.13812-.01026-.12328-.00742-.31072-.01482-.56732-.01482h-.00174c-.32839.01226-.57758.10345-.74515.24766-.16823.14451-.25115.33945-.25115.55034,0,.1388.03207.25252.08859.34628.0563.09348.13528.16446.22562.22003.17805.10914.40585.16188.60442.20777l.00415.00085c.14467.03334.27188.06297.3633.10631.09034.04275.13223.09206.13223.16075,0,.05728-.02662.10829-.09077.14733-.06699.04048-.17522.06755-.3345.06755-.1811,0-.3788-.01938-.53197-.03904-.07659-.00969-.14139-.01968-.18743-.02708-.02291-.00371-.04102-.00685-.05346-.00884-.00327-.00057-.00633-.00113-.00873-.00142-.00196-.00031-.00415-.00059-.00546-.00087l-.00349-.00057-.00109-.00028-.00393-.00085h-.00415c-.03251,0-.06328.00598-.0851.02793-.0192.01909-.02335.04447-.02509.05614-.00022.00085-.00022.00172-.00022.00229-.00131.00626-.00218.01026-.00305.01425l-.00109.00456-.01789.32261v.00116c0,.02108.00305.04617.01462.06869.01156.02394.03273.0453.06502.05357l.00109.00028.00131.00028.00131-.0074-.00131.0074h.00022l.00087.00028c.00044.00028.00175.00028.00305.00057.00262.00059.00655.00116.01178.00229.01026.00199.02509.00456.04473.0077.03949.00626.09688.01453.17129.02309.14794.0168.36156.03334.62427.03334h.00218c.03229.00028.29479.00227.55096-.09378.12852-.04816.25813-.12197.35588-.23539.09863-.11429.16234-.26677.16234-.46684,0-.13738-.03229-.25023-.08881-.34314-.05717-.09293-.13638-.16304-.22693-.21776ZM29.23555,3.16c-.26075,0-.50448.07325-.70915.20007v-1.06294c0-.04645-.03862-.0818-.08357-.0818h-.46738c-.04452,0-.08335.03535-.08335.0818v3.26375c0,.04645.03862.0818.08335.0818h.46738c.04473,0,.08357-.03535.08357-.0818v-.1086c.19311.15049.44906.26023.70915.26023.72726,0,1.31924-.57003,1.31924-1.27625s-.59198-1.27625-1.31924-1.27625ZM29.23555,5.09633c-.37705,0-.68297-.29555-.68297-.66008s.3057-.66008.68297-.66008c.37705,0,.68297.29555.68297.66008s-.30548.66008-.68297.66008ZM27.17312,3.16h-.46847c-.04495,0-.08357.03535-.08357.0818v1.3492c0,.27845-.23478.50675-.52783.50675h-.00807c-.29304,0-.52783-.2283-.52783-.50675v-1.3492c0-.04645-.03862-.0818-.08335-.0818h-.46848c-.04495,0-.08357.03535-.08357.0818v1.3492c0,.62074.52237,1.12122,1.16322,1.12122h.00807c.64085,0,1.16323-.50049,1.16323-1.12122v-1.3492c0-.04645-.03862-.0818-.08335-.0818ZM13.73424,4.35587c-.17796-.10801-.4062-.15988-.60502-.20491l-.00402-.00085c-.14454-.03277-.27138-.06184-.36278-.1046-.09055-.04218-.13168-.09062-.13168-.15732,0-.05756.02171-.10858.07312-.14877.05285-.04133.14026-.07325.27537-.08121.23024,0,.40851.00541.52905.01082.06057.00257.10657.00541.13712.00742.01543.00113.02714.0017.03487.00227.00399.00028.00685.00057.00855.00057l.00201.00028h.00057l.00201.00028h.00201c.0357,0,.06825-.00683.09055-.02992.0197-.02053.0237-.04674.02542-.05957,0-.00085.00028-.0017.00028-.00227.00085-.00543.00142-.00943.00229-.01311l.00113-.00484v-.28586c0-.03478-.00229-.0667-.01571-.09121-.01656-.03048-.04427-.04019-.06655-.04504l-.00201-.00028-.00201-.00028h-.00085l-.00229-.00028c-.00199-.00028-.00484-.00057-.00858-.00085-.0077-.00085-.01914-.00199-.03428-.00343-.03055-.00284-.07626-.00655-.13797-.01026-.12339-.00742-.3108-.01482-.56732-.01482h-.00172c-.3285.01226-.5776.10345-.74528.24766-.16797.14451-.25082.33945-.25082.55034,0,.1388.03201.25252.08857.34628.05627.09348.13539.16446.22566.22003.17799.10914.40594.16188.60448.20777l.00399.00085c.14482.03334.27194.06297.36337.10631.09027.04275.13225.09206.13225.16075,0,.05728-.02658.10829-.09084.14733-.06686.04048-.17511.06755-.33452.06755-.18111,0-.37877-.01938-.53188-.03904-.07657-.00969-.14142-.01968-.18741-.02708-.02285-.00371-.04113-.00685-.05342-.00884-.00343-.00057-.00628-.00113-.00886-.00142-.00199-.00031-.00399-.00059-.00541-.00087l-.00345-.00057-.00114-.00028-.00399-.00085h-.0043c-.03256,0-.06341.00598-.08512.02793-.01914.01909-.02341.04447-.02514.05614-.00028.00085-.00028.00172-.00028.00229-.00113.00626-.00201.01026-.00286.01425l-.00113.00456-.01857.32233v.00116c0,.02108.00314.04617.01455.06867.01172.02396.03286.04532.06513.05359l.00116.00028.00114.00028.00142-.0074-.00142.0074h.00028l.00085.00028c.00059.00028.00172.00028.00314.00057.00257.00057.00659.00116.01172.00229.01028.00199.02514.00456.04486.00768.03941.00628.09684.01455.17111.02309.14796.01682.36164.03336.62445.03336h.00201c.03227.00028.29479.00227.55104-.09378.12854-.04816.25824-.12197.35593-.23539.09856-.11429.16225-.26677.16225-.46684,0-.13738-.03227-.25023-.08883-.34316-.05658-.09263-.1357-.16273-.22625-.21746ZM16.93441,3.16h-.46847c-.04486,0-.08342.03535-.08342.0818v1.3492c0,.27845-.23481.50675-.52791.50675h-.00799c-.29309,0-.52791-.2283-.52791-.50675v-1.3492c0-.04645-.03856-.0818-.08342-.0818h-.46848c-.04484,0-.08342.03535-.08342.0818v1.3492c0,.62074.5222,1.12122,1.16323,1.12122h.00799c.64075,0,1.16323-.50049,1.16323-1.12122v-1.3492c0-.04645-.03856-.0818-.08342-.0818Z" style="fill: #ffffff; fill-rule: evenodd; stroke-width: 0px;"/>
</svg>