<?xml version="1.0" encoding="UTF-8"?>
<svg id="Layer_1" data-name="Layer 1" xmlns="http://www.w3.org/2000/svg" viewBox="0 0 25.85322 7.67109">
  <g>
    <path d="M1.91158,2.245c.34483,0,.64678.12082.8975.35911l.00952.00906.42004-.42006-.00992-.00953c-.16834-.1614-.36316-.29062-.57906-.38404-.22712-.09851-.47545-.14846-.73808-.14846-.5287,0-.98335.18846-1.35128.56013-.3718.37205-.5603.82487-.5603,1.34589,0,.52506.18844.97776.56002,1.34539.37211.37209.82685.56076,1.35155.56076.26245,0,.51077-.04997.73802-.1485.21559-.09277.41039-.222.57897-.38412l.00996-.00958-.42008-.4146-.00945.00874c-.25379.23482-.55573.35387-.89743.35387-.36219,0-.67554-.12797-.93121-.38025-.25652-.25999-.38658-.57348-.38658-.93171,0-.35846.12998-.66992.38634-.92573.25638-.25637.56978-.38637.93145-.38637Z" style="fill: #ffffff; stroke-width: 0px;"/>
    <path d="M6.82259,4.07866c.22424-.09006.41139-.24258.55621-.45325.14837-.21351.2236-.45362.2236-.71362,0-.3436-.12482-.64294-.37101-.88974-.24614-.24617-.5452-.37098-.88887-.37098h-1.90623v3.81215h.58859v-1.28616h1.13193l.74591,1.28616h.68078l-.78862-1.37343.02772-.01114ZM7.0085,2.91179c0,.18395-.06614.34356-.19659.47436-.13061.13075-.28859.19705-.46952.19705l-1.31753-.00532v-1.3328h1.31765c.18038,0,.33832.06626.46941.19693.13043.13079.19657.28884.19657.46978Z" style="fill: #ffffff; stroke-width: 0px;"/>
  </g>
  <polygon points="21.28642 1.65108 20.13813 4.10798 19.00663 1.68656 17.88021 4.10798 16.73047 1.65884 16.72683 1.65108 16.11479 1.65108 17.88005 5.42779 19.00652 3.00615 20.1381 5.42784 21.8897 1.67026 21.89865 1.65108 21.28642 1.65108" style="fill: #ffffff; stroke-width: 0px;"/>
  <path d="M25.29302,2.21137c-.36811-.37181-.82088-.56033-1.34574-.56033h-1.2601v3.81218h1.2601c.52496,0,.97784-.18865,1.34595-.56063.37159-.36785.56-.82052.56-1.34542,0-.521-.18849-.9738-.56021-1.3458ZM25.2595,3.55717c0,.35811-.13015.67159-.38675.93156-.25536.25241-.56671.38038-.92548.38038h-.67183v-2.62403h.67183c.35829,0,.6697.12996.92555.38628.25657.25596.38667.56746.38667.92582Z" style="fill: #ffffff; stroke-width: 0px;"/>
  <path d="M14.31247,3.25997c-.06761-.0128-.18177-.03238-.26009-.053-.01194-.39085-.04496-.74532-.10489-1.14173l-.3171.04523c-.88752.84897-2.31079.86436-3.40359.94178-.01062.04685-.02086.09672-.03025.14789-.106.02987-.24278.05267-.29769.06295-.03256.23059-.02572.43989-.00143.60425.09071.01601.20382.03701.29737.06362.00933.0499.01962.09904.03046.14678.134.01103.27251.02081.41388.03095-.0475.11292-.09306.2345-.1474.38482-.08362.23132-.14452.55985-.16722.68404-.00814.04456.00849.11187.07599.13201.07349.02197.40595.09586.60085.12166.05971.01086.11468-.02302.13287-.08335,0,0,.0189-.06707-.03693-.11487-.17549-.15031-.09845-.65342.08912-1.08067.88027.08233,1.8004.25286,2.44239.8666l.31661.04734c.06362-.40601.09575-.74909.10724-1.14103.08174-.02097.21318-.0468.25976-.05338.02044-.15894.02742-.38894.00003-.61191M15.12335,3.57813c-.0052,1.65656-1.34741,3.00556-3.00672,3.00036-.29192-.00092-.6094-.04976-.88542-.1326l-1.03303.40401.0596-.9131c-.72507-.57495-1.15564-1.46211-1.15275-2.37753.00518-1.65653,1.35927-2.99998,3.01847-2.99478,1.65928.0052,3.00502,1.35712,2.99984,3.01365M15.68854,3.5799C15.68854,1.61212,14.09622.00619,12.12526.00002c-1.97096-.00617-3.57945,1.58968-3.58563,3.55746-.00307.98707.40064,1.94648,1.14669,2.63398l-.07974,1.47964,1.62691-.63811.03771.0096c.26939.06416.5678.10346.84544.10346,1.94996,0,3.57191-1.58628,3.57191-3.56614" style="fill: #ffffff; stroke-width: 0px;"/>
</svg>