<?xml version="1.0" encoding="UTF-8"?>
<svg id="Layer_1" data-name="Layer 1" xmlns="http://www.w3.org/2000/svg" viewBox="0 0 26.68923 6.01782">
  <path d="M1.14893,3.09814H0v2.86279h1.13965c.79102,0,1.39368-.62158,1.39368-1.4314s-.60266-1.4314-1.3844-1.4314ZM1.13965,5.33008h-.48975v-1.60107h.48975c.4519,0,.7627.31079.7627.80054s-.31079.80054-.7627.80054ZM4.41675,4.98169c0,.21655-.10352.40479-.45203.40479s-.45203-.18823-.45203-.40479v-1.88354h-.6499v1.93994c0,.6123.47095.97949,1.10193.97949s1.10193-.36719,1.10193-.97949v-1.93994h-.6499v1.88354ZM7.56226,3.91748c0-.49902-.40503-.81934-.90405-.81934h-1.12061v2.86279h1.20532c.50854,0,.92285-.32959.92285-.83813,0-.29175-.14111-.50854-.34839-.64966.15063-.13184.24487-.32031.24487-.55566ZM6.19678,3.71021h.46143c.15063,0,.24487.10376.24487.25439s-.09424.25415-.24487.25415h-.46143v-.50854ZM6.74292,5.34888h-.54614v-.54614h.54614c.16956,0,.27319.11304.27319.27295,0,.16016-.11304.27319-.27319.27319ZM10.77344,3.9458l.6499-.30151v-.54614h-.6499v.84766ZM9.55859,3.09814h-.83813l-.7251,2.14722.81934-.38623.32007-1.01709.24487.75342.59326-.27319-.41431-1.22412ZM14.05078,4.07764c0-.54639-.43335-.97949-.97949-.97949h-1.14893v2.86279h.6499v-.94165h.31079l.54614.94165h.7063l-.61206-1.05469c.31067-.16016.52734-.48022.52734-.82861ZM13.06189,4.44482h-.48962v-.73462h.48962c.17896,0,.32959.16016.32959.36743,0,.20703-.15063.36719-.32959.36719ZM15.51978,3.09814h-1.08301v2.86279h.6499v-.90405h.43311c.56519,0,.99829-.43311.99829-.97925,0-.54639-.43311-.97949-.99829-.97949ZM15.51978,4.44482h-.43311v-.73462h.43311c.19775,0,.34851.16016.34851.36743,0,.20703-.15076.36719-.34851.36719ZM18.19434,3.04199c-.81934,0-1.48792.64966-1.48792,1.48779,0,.83838.66858,1.48804,1.48792,1.48804s1.48804-.64966,1.48804-1.48804c0-.83813-.6687-1.48779-1.48804-1.48779ZM18.18494,5.37744c-.47083,0-.83801-.33911-.83801-.84766,0-.5083.36719-.84741.83801-.84741.47095,0,.83826.33911.83826.84741,0,.50854-.36731.84766-.83826.84766ZM22.16846,4.07764c0-.54639-.43298-.97949-.97925-.97949h-1.1394v2.86279h.64978v-.94165h.31067l.53687.94165h.7063l-.6123-1.05469c.31091-.16016.52734-.48022.52734-.82861ZM21.18921,4.44482h-.48962v-.73462h.48962c.17896,0,.32959.16016.32959.36743,0,.20703-.15063.36719-.32959.36719ZM22.29102,3.729h.74402v2.23193h.64978v-2.23193h.7345v-.63086h-2.1283v.63086ZM25.76611,4.25684c-.45215-.14136-.51819-.22607-.51819-.35791,0-.11304.10364-.21655.31091-.21655.26367,0,.40491.12231.49902.32959l.55566-.32031c-.20703-.42358-.57446-.64966-1.04541-.64966-.4895,0-.96057.31079-.96057.86621,0,.54639.41443.74414.83826.86646.43323.12256.59326.18848.59326.36743,0,.11279-.07532.23535-.38623.23535-.32007,0-.49902-.16016-.60254-.39551l-.56519.32959c.16016.42383.53687.7063,1.13965.7063.62158,0,1.06396-.32007,1.06396-.87573,0-.60278-.48962-.75342-.92261-.88525ZM9.474,4.90649l.33899,1.05469h.71582l-.45215-1.33716-.60266.28247ZM10.77344,5.96094h.6499v-1.96802l-.6499.31079v1.65723ZM7.75049,5.96118h.7157l.21667-.6875-.83813.38599-.09424.30151ZM23.29858,1.59131h2.0813c.13184,0,.26367-.0376.40503-.12231.09412.08472.22595.14136.35779.14136.30139,0,.54626-.24487.54626-.54639.0094-.31055-.2356-.55542-.54626-.55542-.30139,0-.54626.24487-.54626.54614,0,.09424.01892.17896.06592.25439-.09424.0564-.18823.08447-.27295.08447h-.35803c.10364-.11279.16016-.26367.16016-.40479,0-.31079-.20715-.56494-.48022-.56494-.19788,0-.35803.04688-.59338.27295-.14136.13184-.25427.36719-.33899.53687V0h-.19788v1.39355h-.28247c-.17883,0-.23535-.0376-.23535-.16943V0h-.19775v1.22412c0,.36719.32007.36719.43311.36719ZM26.1427.7063c.18823,0,.34839.15991.34839.34839s-.15076.34839-.34839.34839c-.18835,0-.34851-.15991-.34851-.34839s.16016-.34839.34851-.34839ZM24.25916.84741c.2074-.19775.32031-.21655.45215-.21655.15076,0,.27307.16016.27307.35791,0,.29199-.28247.40479-.47095.40479h-.58374c.0658-.15991.18823-.41431.32947-.54614ZM22.47937.38599h-.19763v1.07373c0,.35767-.13184.41431-.52734.41431v.19775c.36719,0,.72498-.04712.72498-.62158V.38599ZM21.85791,0h-.19788v1.59131h.19788V0ZM17.12085,1.5918h.32959c.10352,0,.43311,0,.43311-.36719V.38623h-.20715v.83838c0,.13184-.05652.16943-.23547.16943h-.32959c-.17896,0-.23535-.0376-.23535-.16943v-.35791c0-.06592,0-.23535-.12256-.36719-.09412-.09424-.23535-.14136-.42371-.14136-.16956,0-.42371.02808-.43323.02808l-.08472.00952v.99829h-.59326c-.39551,0-.58398-.13184-.58398-.40503,0-.28247.12256-.55542.14136-.60278h-.21655c-.04712.12256-.12256.35791-.12256.60278,0,.27319.13184.60278.78174.60278h.80042V.57471c.08484-.00928.22607-.0188.32019-.0188.13184,0,.22607.02832.28247.08472.06592.06592.06592.17896.06592.22607v.35791c0,.36719.32971.36719.43335.36719ZM20.5769.34839c.07544,0,.14136-.06592.14136-.14136,0-.0752-.06592-.14111-.14136-.14111-.0752,0-.14111.06592-.14111.14111,0,.07544.06592.14136.14111.14136ZM20.15332.34839c.0752,0,.14136-.06592.14136-.14136,0-.0752-.05664-.14111-.14136-.14111-.07544,0-.14124.06592-.14124.14111,0,.07544.0658.14136.14124.14136ZM15.953,1.91211c0-.07544-.06592-.13184-.14124-.14136-.07532,0-.14124.06592-.14124.14136,0,.0752.06592.14111.14124.14111s.14124-.06592.14124-.14111ZM15.5293,1.91211c0-.07544-.06592-.13184-.14136-.14136-.07532,0-.14124.06592-.14124.14136,0,.0752.06592.14111.14124.14111.07544,0,.14136-.06592.14136-.14111ZM17.52588,1.91211c0,.0752.06592.14111.14124.14111s.14124-.06592.14124-.14111c0-.07544-.06592-.13184-.14124-.14136-.07532,0-.14124.06592-.14124.14136ZM19.25854,1.46924v-.16968c0-.54614-.34839-.92285-.84741-.92285v.19775c.38599,0,.64966.29199.64966.71582v.09399h-.97949v.19775h.93237l.24487-.11279ZM21.28333,1.22412V.38599h-.20715v.83813c0,.13184-.05652.16968-.2356.16968h-1.02637l-.42383.19775h1.45972c.10376,0,.43323,0,.43323-.36743Z" style="fill: #ffffff; stroke-width: 0px;"/>
</svg>