<?xml version="1.0" encoding="UTF-8"?>
<svg id="Layer_1" data-name="Layer 1" xmlns="http://www.w3.org/2000/svg" viewBox="0 0 33.43756 6.03887">
  <path d="M18.83624,2.11847v.64096h.71779V.0624c-.02197-.00134-.04294-.00084-.06425,0h-.15684c-.15432,0-.31419,0-.47137-.00151-.01962,0-.02348.00252-.02365.00268-.0014.00854-.00202.01718-.00185.02583.00045.67613.0005,1.35248.00016,2.02906ZM17.84402.6844c.19324,0,.3932-.00117.59013.00134.0089.00109.01792.00005.02633-.00302.00224-.00893.00304-.01816.00234-.02734-.00234-.16959-.00252-.35227,0-.57336.00047-.00688-.00014-.01378-.00184-.02047,0,0-.00604-.00117-.01863-.00117-.85029.00134-1.62864.00134-2.38132-.00017-.00697.00038-.01393.00116-.0208.00235,0,0-.00084.0057,0,.02315.00151.14007.00134.28249.001.41937v.17848h.85265v2.07855h.71779V.78371c0-.03909,0-.06274.01795-.08136s.04244-.01845.08186-.01795h.13253ZM15.62742,2.76412h.22948l-.50827-.97293.03959-.02818c.00721-.0052.01258-.00906.01795-.01258.19721-.12695.33408-.32889.37894-.5591.05416-.24538.01002-.50222-.12296-.71544-.17927-.27094-.48749-.42801-.81206-.41383-.23484-.00235-.47221-.00201-.70236-.00168h-.51833c-.02265,0-.02667.00268-.02717.00302-.00246.00861-.00331.01759-.00252.0265.00123.68094.00162,1.36188.00117,2.04282v.62737h.71191v-.85182h.03657c.02483,0,.04881,0,.07247.00101.04859.00207.09727.00129.14577-.00235.00738,0,.01442-.00101.02131-.00101.06481-.00033.12212.04198.14091.104.06408.14342.13118.28836.19609.42859.04664.10065.0931.2013.13907.30194.01041.0213.0146.02449.03926.02466.17446-.00117.34875-.00117.5232-.00101ZM14.79897,1.30444c-.00919.00028-.01839.00015-.02757-.00038l-.00084.00168h-.44905l-.00352-.03271c0-.00621-.00151-.01191-.00218-.01677-.00182-.01166-.00288-.02343-.00319-.03523v-.44688c-.00268-.02522.00521-.05043.02181-.06961.01805-.0156.04166-.02323.06542-.02114.0624.00117.1248.00101.1872,0,.06241-.00101.12866,0,.19291,0,.1715-.00525.31478.12952.32003.30102.00525.1715-.12952.31478-.30102.32003ZM13.22881,1.4183c.00358-.37124-.14165-.72846-.40326-.99188-.25824-.25878-.60936-.40335-.97494-.40142h-.00101c-.76629-.00951-1.3952.60398-1.40471,1.37027s.60399,1.3952,1.37028,1.40471c.01008.00013.02016.00014.03024.00005h.00101c.75621.00726,1.37514-.59989,1.38239-1.35611.00008-.00854.00008-.01708,0-.02562ZM12.22435,1.98545c-.10944.07685-.24001.11788-.37374.11742-.07949-.00025-.15838-.01392-.23334-.04043-.29644-.11429-.47463-.41821-.4296-.73272.02854-.36325.34615-.63458.7094-.60604.2977.02339.54257.24382.59701.53743.00638.03355.01007.06878.01359.10233.00168.01527.00319.03036.00503.04563v.00235l.00034.00252c.00263.22616-.1051.43942-.28869.57151ZM14.95308,5.29307c-.28282.00168-.57034.00151-.84847.00134h-.38749v-2.03862h-.71326v2.68931h1.9794v-.02147c0-.05927,0-.1186,0-.17798,0-.13822,0-.28131.00168-.42188.00127-.00938.00029-.01892-.00285-.02784-.00939-.00285-.01925-.00382-.02902-.00285ZM19.52485,4.7442l-.05636-.0364c-.02343-.01519-.04288-.03579-.0567-.06005l-.11641-.18838c-.24189-.39141-.48356-.78321-.725-1.1754-.01677-.0265-.02751-.03355-.05368-.03355h-.00151c-.18335.00168-.36904.00151-.54987.00134h-.22277c-.00671,0-.01359,0-.02047.00084v2.69267h.71192v-1.48305l.05368.02835c.02444.01321.04467.03303.05837.0572l.08387.1342c.25408.41131.50777.8228.76106,1.23444.00905.02215.03154.03577.05536.03355.17965-.00151.3625-.00134.53897-.00134h.23367c.00722,0,.01442,0,.02164-.00084v-2.69149h-.71578v1.48791ZM20.67658,1.26548l.05737.03942c.02459.01713.04506.03954.05988.06559l.13033.21119c.23652.38302.47266.76627.7084,1.14973.00945.02301.0332.03678.05787.03355.19089-.00185.38497-.00151.57269-.00134h.22411c0-.00906.001-.01677.001-.02567v-.61546c0-.67915.00034-1.3583.001-2.03745.00061-.00796-.00018-.01597-.00234-.02365,0,0-.00554-.00117-.01863-.00117h-.00168c-.15581.00168-.31433.00151-.46781.00134h-.20834c-.00772,0-.01543,0-.02365.00117v1.4547l-.0671.01476-.02567-.03959c-.00839-.01292-.01677-.02567-.02483-.03875l-.1342-.21606c-.23674-.38291-.47305-.76604-.7089-1.1494-.00879-.01936-.02927-.03062-.05032-.02768-.18856.00117-.37727.00101-.56565.00084h-.23351v2.69921h.71997v-1.49529ZM12.61889,5.29374h-.00117c-.28433.00151-.57336.00134-.85283.00117h-.38414v-2.03812h-.71745v2.68813h1.98193v-.14259c0-.16506,0-.32107.00134-.48059.00101-.00866.00004-.01744-.00284-.02566-.00815-.00178-.01649-.00256-.02483-.00235ZM24.99891,3.24891c-.47573,0-.95146-.00034-1.42719-.00101-.00756-.00023-.01512.00056-.02247.00235,0,0-.00134.00554-.00134.02181.00089.66853.00123,1.33705.001,2.00557v.65304c0,.00621,0,.01258.00084.01896h1.98092v-.62653h-1.25811v-.42708l.98485-.00134v-.60573h-.98551v-.41198h1.25944v-.62804h-.53243ZM22.48422,4.98945c-.18369.29213-.56785.38273-.86272.20348-.23372-.13733-.36059-.40287-.32056-.67099.02207-.2804.22047-.51552.49317-.58443.2672-.06586.5466.04639.69397.27879.00269.00386.00537.00772.00822.01191l.64498-.33046c-.2482-.42764-.70663-.68937-1.20106-.68575-.10744-.00012-.2145.01301-.31872.03909-.74474.18688-1.19698.94211-1.0101,1.68685.13553.54011.58026.94724,1.13021,1.03467l-.0005.0005c.56544.09189,1.12771-.18099,1.40538-.68206l-.64549-.32845-.01677.02684ZM24.71172,2.73024c.32974-.08865.60341-.31855.74764-.62804.04901-.09597.07345-.2026.07112-.31033-.0042-.11876-.00336-.23937-.00252-.35596v-.18351h-1.09035v.50492h.34524l.00755.0265c.02582.07595-.00459.15964-.07313.2013-.24994.17019-.57519.18245-.83723.03154-.23514-.15097-.35392-.43047-.29943-.70453.01586-.25583.19352-.47287.44118-.53897.25179-.09752.53774-.02212.70872.18687.00274.00383.00622.00708.01023.00956.00526-.00201.01037-.00442.01527-.00721.06223-.03489.12531-.06844.18821-.10199l.08673-.04647.37575-.20297c-.01107-.01677-.02097-.03355-.03153-.04781-.19105-.27548-.48669-.46058-.81794-.51213-.10576-.01891-.21296-.02867-.32039-.02919-.26033-.00417-.51588.07012-.73339.21321-.4617.27938-.71142.8079-.63408,1.34197.03322.42959.27719.8148.65136,1.02845.35964.21376.79485.25936,1.191.1248ZM9.04019,4.89551h.98467v-.60657h-.98551v-.41198h1.25944v-.62804h-.01678l-.51481-.00117c-.47573,0-.95146-.00034-1.42719-.00101-.00741-.00058-.01486.00022-.02198.00235,0,0-.00134.00554-.00134.02181.001.66271.00134,1.32547.001,1.9883v.67099c0,.00621,0,.01258.00084.01896h1.98092v-.62653h-1.25927v-.42708ZM8.0332,2.73729v.02382h.71142v-.87815h.12414c.05737-.00134.11575-.00101.17211,0,.12259.00391.2453-.0017.36703-.01677.31521-.0321.58793-.23332.71158-.52505.12038-.30108.08262-.64237-.10065-.90986-.18528-.24584-.48027-.38398-.78774-.36887-.22092-.00235-.44571-.00201-.66293-.00168h-.50659c-.00912-.00072-.0183.00036-.02701.00319-.00218.00871-.00303.0177-.00252.02667.00123.67825.00162,1.35645.00117,2.0346v.61211ZM8.74815.67468l.03204-.00403.01376-.00201c.01157-.00215.0233-.00338.03506-.00369h.0718c.09763,0,.19861-.00084.29791,0,.1704.00495.30451.14709.29956.31748-.00467.16105-.13244.2914-.29335.29932l-.00118.00017c-.05032.00117-.10199.00151-.15298.00151h-.23972c-.00793-.00023-.01581-.00136-.02348-.00336l-.00939-.00369-.03002-.00554v-.59617ZM7.21729,4.98257c-.18399.29649-.57217.38995-.87094.20968-.24343-.15396-.36666-.44213-.30983-.7245.05704-.35415.39039-.595.74454-.53795.05928.00955.11694.02727.17135.05266.11269.05454.20744.14015.27309.24675l.64347-.32996c-.24036-.42745-.69408-.69046-1.18446-.68659-.11067.00004-.22095.01298-.32862.03858-.74564.1829-1.20181.93563-1.01891,1.68127.13437.54778.58641.96008,1.14421,1.04361v-.00017c.56286.08967,1.12119-.18488,1.39381-.68541l-.64499-.32778-.01275.01979ZM16.08185,4.89602l.98484-.00134v-.60573h-.98551v-.41198h1.25944v-.62804h-.53209c-.47573,0-.95145-.00034-1.42719-.00101-.00741-.00056-.01486.00023-.02197.00235,0,0-.00134.00554-.00134.02181.0009.65913.00123,1.31832.00101,1.97756v.68105c0,.00621,0,.01258.00084.01896h1.98091v-.62653h-1.25894v-.42708ZM7.08058,1.05445L7.77756.05351h-.95414l-.311.4452.48898.66797.07917-.11222ZM7.00962,1.66505l-.48495.67367.29926.42943h.95414l-.68625-.98551v-.00017l-.08219-.11742ZM.72333,4.894h.98484v-.60556h-.98551v-.41198h1.25944v-.62804h-.01678l-.51431-.00067c-.47573,0-.95146-.00034-1.42719-.00101-.00756-.00154-.0154-.00072-.02248.00235,0,0-.00134.00554-.00134.02181.0009.66092.00123,1.32184.00101,1.98276v.67585c0,.00621,0,.01258.00084.01896h1.98041v-.6267H.72333v-.42775ZM2.4647,2.74299c0,.00621,0,.01258.00084.01879h1.98092v-.6262h-1.25894v-.42708h.5955v-.6064h-.59617v-.41182h1.25944V.06223h-.01678l-.50206-.00084c-.48009,0-.96024-.00034-1.44044-.00101-.00741-.00055-.01485.00024-.02198.00235,0,0-.00134.00554-.00134.02181.00089.65913.00123,1.31826.001,1.97739v.68105ZM4.78061,2.76815h.96471l.45291-.60489.51833-.74429L5.72267.0614h-.95615l1.00396,1.34935-.98987,1.3574ZM5.39087,3.25344h-.95934l-.4504.60137-.14259.20465-.59013-.80602h-.95029l.99809,1.34197-.98467,1.34935h.95934l.4504-.60137.14259-.20482.59013.80602h.95028l-.99792-1.34197.9845-1.34919ZM28.12604,4.03497v2.0039h2.6239l.52504-.3833-3.12478-1.6206h-.02416ZM33.16296,6.03887v-.00604l-.01543.00604h.01543ZM32.18366,4.03497h-1.63369l1.52649.50794.1072-.50794ZM33.36978,3.61728c.05034,0,.06711-.00973.06711-.06391-.00156-.35942-.00156-.71885,0-1.07827.00016-.04613-.01325-.06559-.06022-.05905-.01765.00121-.03536.00121-.05301,0-1.74959,0-3.78184-.00034-5.53143.00117-.05737,0-.07129-.0156-.07129-.07213.00079-.7562.00119-1.5124.00118-2.2686.00017-.02617.00185-.051.00285-.07649l-1.30945.0005v6.02864h1.30641v-.07867c.00069-.7581.00034-1.51626-.001-2.27447,0-.04529.01023-.06743.05854-.05972.00977.00075.01959.00075.02936,0,1.75949,0,3.80164-.00017,5.56096.00101ZM32.40172,4.93694l-2.71984-.88906-.88033-.06995,3.132,1.67076-.53025.36485,2.03408-.0005-.95733-1.77811-.07833.70202ZM32.18366,2.01698l-.1072-.50794-1.52649.50794h1.63369ZM31.27497.39639l-.52504-.3833h-2.6239v2.0039h.02416l3.12478-1.6206ZM33.16296.01325h-.01543l.01543.00604v-.00604ZM28.80155,2.07402l.88033-.06995,2.71984-.88906.07833.70202.95733-1.77811-2.03408-.0005.53025.36485-3.132,1.67075ZM32.84574,2.01715h.59182V.75905l-.59182,1.2581ZM33.43756,5.29206v-1.2581h-.59182l.59182,1.2581Z" style="fill: #ffffff; stroke-width: 0px;"/>
</svg>