<?xml version="1.0" encoding="UTF-8"?>
<svg id="Layer_1" data-name="Layer 1" xmlns="http://www.w3.org/2000/svg" viewBox="0 0 35.39009 6.69314">
  <path d="M32.41702,5.9793h-.0003l.18484.60929h1.24316l.00746-.02178.09149-.26015c-.52154-.21627-1.05801-.41636-1.60879-.5984l.08215.27104ZM29.02984,5.08155c.0003,0,.00063.00031.00093.00031l.53648,1.50673h1.2335l.28505-.96248.08091-.27197c-.72161-.19978-1.46317-.3703-2.22119-.51064l.08432.23805ZM23.69593,4.3758h0s0,0,0,0ZM27.13415,4.57838c-.08215.59466-.58595,1.05987-1.19431,1.05987-.67618,0-1.22044-.55483-1.23164-1.24596-.3202-.00996-.64071-.0168-.96155-.0168-.0168,0-.03391.00031-.05071.00031v.00435c0,1.25809,1.01102,2.27347,2.25324,2.27347,1.08041,0,1.98532-.79631,2.17235-1.84467.00591-.0333.00934-.06722.01369-.10113v-.00187c-.33078-.05103-.66437-.09615-1.00045-.13567-.0003.00249-.0003.00529-.00063.00809ZM21.24198,4.48564v2.05129h1.04213v-2.12255c-.34821.01867-.69579.04139-1.04213.07126h0ZM16.80178,6.53693h1.04214v-1.56212c-.35039.07095-.69704.14968-1.04214.23214v1.32998ZM19.57251,6.53693h1.04214v-1.9903c-.34883.03765-.69611.08277-1.04214.13194v1.85836ZM15.39433,5.78108h0c-.1419,0-.24676-.03267-.31367-.10487-.34852.10736-.68459.2421-1.02564.3619.18827.46552.63823.65503,1.2357.65503.40796,0,.78137-.11296,1.1638-.24303l-.2869-.84267c-.25206.08682-.5038.17364-.77327.17364ZM7.26664,2.09797c-1.32936,0-2.0155,1.01631-2.0155,2.27596,0,1.34616.88623,2.25853,2.22368,2.25853.51251,0,1.02534-.12167,1.49428-.32176l-.32985-.80751c-.31305.13879-.74746.2256-1.10375.2256-.64227,0-1.09441-.31273-1.1638-.98115h2.80558c.02645-.19137.0613-.38244.0613-.57381,0-1.20737-.72099-2.07587-1.97194-2.07587ZM6.37169,3.93081c.02614-.52154.34759-.97275.90336-.97275.58222,0,.87753.42569.88623.97275h-1.78959ZM29.22774,2.20532h-1.21793l.72224,2.03666c.42008.06037.83582.12976,1.24657.20849l-.75088-2.24515ZM34.25709,2.20532h-.00006s-.97025,3.01284-.97025,3.01284l-1.08943-3.01283h-.98892l-.83893,2.32264c.32892.06784.6541.14221.97618.22218l.34572-1.16692.41387,1.36701c.7098.19915,1.40217.42756,2.07526.68459l1.20956-3.4295h-1.133ZM25.92214,2.11539c-1.08664,0-1.98594.78261-2.18447,1.82973h-.00003c.23556-.00529.47081-.00902.7042-.00902.11576,0,.23213.00249.34822.00373.17986-.46086.63356-.79973,1.14109-.79973.54022,0,1.01319.38959,1.16413.91331.35287.03049.70264.06722,1.04992.10984-.11732-1.15914-1.06144-2.04787-2.22305-2.04787ZM23.14424,2.09797c-.68646,0-1.35518.2172-1.98065.47766h-.00002s.07842.43441.07842.65161v.86632c.34603-.03392.69362-.06379,1.04213-.0862v-.80626c0-.02614-.00902-.08682-.00902-.08682.25206-.0781.52153-.11296.78231-.11296.19107,0,.43409.04357.5732.08682l.31274-.89464c-.23463-.06099-.52994-.09553-.79911-.09553ZM19.1297,2.09797c-.44312,0-.88592.11265-1.28578.28628V0l-1.04214.40733h0v4.46106c.34479-.08744.69175-.17115,1.04214-.24645v-1.29948c.28659-.17364.66032-.32114.99888-.32114.4344,0,.72971.31242.72971.79039v.51251c.34572-.05352.69299-.10113,1.04214-.14252v-.5262c0-.96434-.5122-1.53753-1.48495-1.53753ZM14.99508,3.09685h1.21608v-.90335h-1.21608V.80315h-.00094s-1.04151.40733-1.04151.40733v1.00013l-.49509.02645v.82493l.49509.02614v2.39763c0,.09367.00777.18048.02116.26263.3367-.12509.67681-.24583,1.02129-.35817v-2.29339ZM11.49807,2.09797c-.56479,0-1.19866.1391-1.71117.37341h-.00002s.35599.79071.35599.79071c.3647-.15652.81653-.26077,1.20737-.26077.26046,0,.72972.03485.72972.39955,0,.75585-2.69294.15652-2.69294,1.91126,0,1.016,1.11184,1.32033,1.94611,1.32033.26077,0,.46677-.01649.64165-.04574.37591-.17675.75772-.34603,1.14576-.50567.00031-.0168.00187-.16306.00187-.33483v-2.2324c0-1.0076-.69486-1.41586-1.62435-1.41586ZM11.34185,5.76365c-.37372,0-.80782-.07811-.80782-.52994h0c0-.48606,1.18995-.31864,1.54593-.65721v.90055c0,.06068.00373.17893.00373.17893-.24365.07811-.49011.10767-.74185.10767ZM3.70054,2.99261H1.08571V.40702l-1.08571.42507h0v5.70484h1.08571v-2.64066h2.61484v2.64066h1.08571V.40983l-1.08571.42445v2.15833Z" style="fill: #ffffff; stroke-width: 0px;"/>
</svg>