<?xml version="1.0" encoding="UTF-8"?>
<svg id="Layer_1" data-name="Layer 1" xmlns="http://www.w3.org/2000/svg" viewBox="0 0 25.34523 7.83294">
  <path d="M3.69329,4.97658l-1.4127-3.44959H0v4.73324h1.70687v-2.59608l1.06139,2.59608h1.85031l1.047-2.5817v2.5817h1.70675V1.52699h-2.28045l-1.39858,3.44959ZM11.87652,3.70717l-.00014.00013c0,.34427-.09086.6132-.27246.80671-.18174.19364-.43277.29052-.7531.29052-.32032,0-.57136-.09688-.75296-.29052-.18174-.19364-.27248-.46258-.27248-.80671V1.52699h-1.82874v2.18017c0,.53553.11716,1.00164.35144,1.39845.2343.39681.56653.70276.99681.91796.43028.21521.93234.32269,1.50605.32269s1.07578-.10761,1.50606-.32269c.43028-.21507.76251-.52114.99694-.91796.23429-.39681.3513-.86293.3513-1.39845V1.52699h-1.82872v2.18017ZM25.34523,3.0116v-1.4846h-4.96988v4.73324h4.96988v-1.48449h-3.14123v-.48767h2.68945v-.78879h-2.68945v-.48769h3.14123ZM20.40639,0h-3.53249l-2.80795,4.24295h3.16754l-2.53551,3.58999.01085-.00182,5.20871-4.57204h-2.53896l3.02781-3.25908Z" style="fill: #ffffff; stroke-width: 0px;"/>
</svg>