<?xml version="1.0" encoding="UTF-8"?>
<svg id="Layer_1" data-name="Layer 1" xmlns="http://www.w3.org/2000/svg" viewBox="0 0 22.45129 8.00151">
  <path d="M2.47655,7.99826c-.66896-.02658-1.21627-.20964-1.64421-.54961-.08167-.06494-.27629-.25967-.34158-.34182-.17354-.21819-.29152-.43056-.37022-.66621C-.12161,5.71533.00301,4.76356.47701,3.719c.40584-.89427,1.03207-1.7812,2.12463-3.00961.16094-.18076.6402-.70939.64329-.70939.00113,0-.02498.04525-.05785.10034-.28407.47583-.52714,1.03631-.65956,1.52153-.2127.77858-.18706,1.44672.07515,1.96484.18088.35693.49095.66607.83964.83699.61042.29907,1.50411.32381,2.59552.07239.07515-.0174,3.7986-1.00584,8.27444-2.19656C18.78807,1.1087,22.45062.13517,22.45129.13597c.00133.00103-10.39861,4.45118-15.79732,6.75988-.855.36553-1.08361.45786-1.48557.59897-1.02749.36082-1.94788.53298-2.69185.50344Z" style="fill: #ffffff; stroke-width: 0px;"/>
</svg>