<?xml version="1.0" encoding="UTF-8"?>
<svg id="Layer_1" data-name="Layer 1" xmlns="http://www.w3.org/2000/svg" viewBox="0 0 20.16764 3.86556">
  <path d="M2.45624,3.8483l-.74205-1.06993h-.82258v1.06993h-.89161V0h1.66817c1.02967,0,1.67393.53497,1.67393,1.39206,0,.57523-.29337,1.0009-.79382,1.21374l.86285,1.23675h-.95489v.00575ZM1.6164.72479h-.72479v1.34029h.72479c.54647,0,.82258-.2531.82258-.67302s-.27611-.66727-.82258-.66727Z" style="fill: #ffffff; stroke-width: 0px;"/>
  <path d="M5.68329.87435l.60975,1.47259h-1.21949l.60975-1.47259ZM5.25187,0l-1.71419,3.8483h.91462l.33939-.82833h1.78897l.33939.82258h.93188l-1.71994-3.84255h-.88011Z" style="fill: #ffffff; stroke-width: 0px;"/>
  <path d="M11.3896,1.39781c0,.8571-.64426,1.39206-1.67393,1.39206h-.77656v1.05843h-.89161V0h1.66817c1.02967,0,1.67393.53497,1.67393,1.39781ZM10.48648,1.39781c0-.41992-.27611-.67302-.82258-.67302h-.72479v1.33454h.72479c.54647,0,.82258-.24735.82258-.66152Z" style="fill: #ffffff; stroke-width: 0px;"/>
  <path d="M12.60334,0h-.89161v3.8483h.89161V0Z" style="fill: #ffffff; stroke-width: 0px;"/>
  <path d="M14.7432,0h-1.74871v3.8483h1.74871c.3739,0,.70753-.06903.99515-.18983l1.04117-2.32969c-.2416-.82258-1.00666-1.32879-2.03632-1.32879ZM14.70294,3.11776h-.81108V.73054h.81108c.76506,0,1.26551.45443,1.26551,1.19073s-.50045,1.19648-1.26551,1.19648Z" style="fill: #ffffff; stroke-width: 0px;"/>
  <path d="M17.43529,1.90402l.40266.96639h-.79957l.39691-.96639ZM17.15342,1.32879l-.38541.8686-.67877,1.52437-.05752.12655h.59824l.21859-.54072h1.16772l.22434.54072h.60975l-1.12746-2.51376h-.56948v-.00575Z" style="fill: #ffffff; stroke-width: 0px;"/>
  <path d="M19.69595,1.32879h-.58098v2.51377h.58098V1.32879Z" style="fill: #ffffff; stroke-width: 0px;"/>
  <path d="M19.85702,3.7045c0-.02876.00575-.05752.02301-.08053.01151-.02301.02876-.04027.05752-.05752.02301-.01726.04602-.02301.07478-.02301s.05177.00575.07478.02301c.02301.0115.04027.03451.05752.05752.01151.02301.02301.05177.02301.08053s-.00575.05177-.02301.08053c-.01151.02301-.02876.04027-.05177.05752s-.04602.02301-.07478.02301-.05177-.00575-.07478-.02301-.04027-.03451-.05177-.05752c-.02876-.02876-.03451-.05177-.03451-.08053ZM19.88003,3.7045c0,.02301.00575.04602.01726.06903.01151.02301.02876.04027.04602.04602.02301.0115.04027.01726.06328.01726s.04027-.00575.06328-.01726c.02301-.0115.03451-.02876.04602-.04602.01151-.02301.01726-.04027.01726-.06328s-.00575-.04602-.01726-.06328c-.01151-.02301-.02301-.03451-.04602-.04602-.02301-.0115-.04027-.01726-.06328-.01726s-.04027.00575-.06328.01726c-.02301.0115-.03451.02876-.04602.04602-.01151.00575-.01726.02876-.01726.05752ZM19.97782,3.716v.06903h-.02876v-.17832h.05752c.02301,0,.04027.00575.05177.0115.01151.0115.01726.02301.01726.04027s-.01151.02876-.02876.04027c.01726.00575.02301.02301.02301.04027v.03451h-.02876v-.05177c0-.0115-.01151-.02301-.02876-.02301l-.03451.01726h0ZM19.97782,3.69299h.03451c.01151,0,.01726,0,.02301-.00575s.01151-.0115.01151-.01726c0-.0115,0-.01726-.00575-.02301s-.01726-.00575-.02876-.00575h-.02876v.05177h-.00575Z" style="fill: #ffffff; stroke-width: 0px;"/>
</svg>