<?xml version="1.0" encoding="UTF-8"?>
<svg id="Layer_1" data-name="Layer 1" xmlns="http://www.w3.org/2000/svg" viewBox="0 0 33.09978 7.53171">
  <path d="M7.10823,5.28241l.18152-.18555s-.48877.02612-.70093.03735c.50757-.49341.7771-1.14404.85449-1.35205l.09021-.24316s-.43787.22314-.62732.32007c.20093-.50122.23987-1.0293.23987-1.35059,0-.10034-.00354-.18018-.00696-.23315l-.01672-.25879s-.30969.38306-.44397.54883c-.02637-.70825-.32715-1.34619-.43018-1.54272l-.12036-.22998s-.12646.4729-.18127.67798c-.31238-.63525-.84778-1.09277-1.02161-1.23022l-.20361-.16089s.07678.48291.11035.69263C4.28743.3183,3.6125.11883,3.39766.06415L3.14644-.00006l.14148.21729s.1261.19409.24194.37231c-.68225-.19385-1.38037-.10278-1.59888-.06567l-.25549.04395s.4104.26611.58838.38135c-.70142.10083-1.30127.46875-1.48584.5918l-.21558.1438s.48315.07617.69275.10938c-.59949.3772-.99817.95728-1.1167,1.14478L-.00005,3.15814s.47229-.12695.67737-.18213c-.39417.58862-.52234,1.28052-.55457,1.5l-.03735.25635s.38135-.30908.54675-.44312c-.03113.17944-.04553.3584-.04553.52856,0,.49121.10242.91016.14709,1.06885l.07019.24951s.22168-.43604.31787-.625c.17358.68701.60217,1.24512.7439,1.41553l.16553.19971s.02527-.48853.03613-.70044c.43774.55664,1.0564.89233,1.25537.99097l.2323.11475s-.17566-.45654-.25183-.65454c.62598.33008,1.328.38525,1.54968.39453l.25916.01074s-.34729-.34741-.49792-.49756c.70667.04736,1.37146-.18628,1.57788-.26807l.24121-.0957s-.45691-.17505-.65527-.25098c.66418-.24414,1.17517-.729,1.33032-.8877ZM5.86006,6.41839c-.34912.10889-.93408.24048-1.50598.13184l-.32336-.06152s.40649.40576.55957.55859c-.36328-.04248-.95239-.16113-1.42993-.49268l-.27051-.18774s.20654.53638.28406.73804c-.31433-.18652-.80408-.53418-1.10583-1.03149l-.17065-.28174s-.02979.57397-.04102.78979c-.21118-.29785-.51721-.8147-.59045-1.39258l-.0415-.32642s-.26062.5127-.35864.70532c-.03894-.19434-.07703-.45898-.07703-.74951,0-.24463.0271-.50806.104-.76318l.09473-.31494s-.44604.36206-.61401.4978c.07996-.3562.25928-.92944.6394-1.37012l.21509-.24951s-.55505.14917-.76379.20532c.21814-.29346.61523-.7439,1.1416-.99194l.29773-.14038s-.56763-.0896-.78113-.12329c.31848-.17896.86438-.42944,1.44641-.44189l.3291-.00708s-.48206-.3125-.66333-.42993c.36353-.03418.96387-.04126,1.50098.18457l.30347.1272-.17944-.27588s-.13391-.20581-.25171-.38696c.34619.1167.89746.35498,1.29626.77905l.22522.23975s-.09009-.56714-.12402-.78052c.2688.2478.67603.68994.86719,1.23901l.10864.31055s.14807-.55469.20386-.76318c.12939.29956.29614.78467.29614,1.29785,0,.06177-.00269.12402-.00781.18604l-.02734.32812s.36096-.44629.4967-.61377c-.00427.36523-.05994.9624-.33997,1.47241l-.15833.28857s.5116-.26123.7041-.35938c-.15271.33228-.44763.85571-.91052,1.20776l-.26196.19922s.57373-.03076.78967-.04199c-.27454.24121-.75696.6001-1.32288.73291l-.32043.0752s.53577.20532.73767.28271ZM3.74654,2.04877c-.93494,0-1.69556.76074-1.69556,1.69556s.76062,1.69556,1.69556,1.69556c.93481,0,1.6958-.76074,1.6958-1.69556s-.76099-1.69556-1.6958-1.69556ZM3.74654,5.23749c-.82324,0-1.49316-.66968-1.49316-1.49316,0-.82324.66992-1.49292,1.49316-1.49292s1.49329.66968,1.49329,1.49292c0,.82349-.67004,1.49316-1.49329,1.49316ZM28.27681,3.72699l-.0083-.02979c-.26465-.84814-1.53088-1.29468-2.47559-1.29468h-.1825c-.94482,0-2.20911.44653-2.47217,1.29468l-.00916.0293-.00659.0249c-.05591.2002-.08716.40918-.08716.62549,0,.21851.02905.42676.08533.62817l.00891.03516c.24512.86133,1.51819,1.29028,2.47217,1.29028h.18848c.97754,0,2.30151-.45068,2.50037-1.35254.05176-.19287.07947-.39551.07947-.60327,0-.21558-.03149-.42432-.08691-.62378l-.00635-.02393ZM26.13423,5.2597c-.80811.37695-1.64709.28931-1.87329-.1958-.22607-.48511.24561-1.18384,1.0542-1.56079.80847-.37695,1.64722-.28931,1.87329.19604.2262.48486-.24573,1.18359-1.0542,1.56055ZM15.71455,2.47064c-.54211,0-.65149.20264-.65149.35547,0,.39478.42322.35449.83691.35449.37122,0,.73047.0105.73047.28638,0,.28198-.11426.35864-.77356.35864-1.57056,0-2.21558.76001-2.13037,1.42163.08301.64673.73828,1.03882,1.83252,1.03882h2.26831c.33215,0,.5542-.0979.51648-.39209l-.02612-2.20532c0-1.05347-1.08032-1.21802-2.60315-1.21802ZM16.38802,5.57562c-.51538.23999-1.05017.18433-1.19434-.125-.14404-.30908.15674-.75464.67224-.99512.51538-.24023,1.05005-.18457,1.19434.12476.14404.30933-.15698.75464-.67224.99536ZM31.48018,2.48163c-.35986,0-.78198-.03955-1.64648.12134-.85742.15967-1.10474.31763-1.10474.67432l.0022,2.44043c0,.37109.10095.56909.85205.56909.78259,0,.89209-.18408.89209-.54077l-.00439-.42529c0-1.50098-.15369-1.99707.84766-2.13794.79956-.11255,1.78125.42285,1.78125-.23755,0-.271-.65735-.46362-1.61963-.46362ZM22.26839,5.59271h-.68469c-.34277,0-.90015-.01001-.46167-.44043.07886-.07764,1.43066-1.54492,1.43066-1.54492.25952-.25977.48975-.43091.61646-.76514.08545-.2251-.09644-.35718-.41467-.35718h-2.82996c-.32983,0-.54321.13062-.54321.34131,0,.24829.21289.35791.46802.35791l.30298-.00146c.32275,0,.95691-.02954.67419.25317-.15735.15674-1.69739,1.72437-1.69739,1.72437-.26465.24146-.50391.56323-.50391.77856,0,.29639.1377.36328.45618.36328h2.95764c.44446,0,.86694-.12256.90112-.34619.02808-.18457-.30103-.36328-.67175-.36328ZM12.63973,4.71869c-.05505-.07373-.07336-.16211-.07336-.26489,0-.11768.0918-.25024.29321-.41211.14795-.09204.25427-.16284.32983-.2207.09351-.07129.14673-.11768.2749-.27954.14673-.2207.21997-.44165.21997-.69165,0-.97144-.78784-1.51587-2.14404-1.51587h-1.53943c-.68567,0-1.5575.14014-1.5575,1.50146v2.8689c0,.55249.29431.57104.77063.57104.42151,0,.85901-.07373.85901-.45288v-.85962c0-.21094.16675-.35693.37866-.35693.32446,0,.35034.07153.82068.63477l.66272.75122c.14771.146.36646.29419.67822.29419h.66003c.32971,0,.53564-.08936.49475-.2356-.08521-.302-1.1283-1.33179-1.1283-1.33179ZM11.21553,3.65277c-.60632.28271-1.23535.21704-1.40503-.14673-.16968-.36401.18433-.88794.79077-1.17065.6062-.28296,1.23535-.21704,1.40503.14673.16968.36401-.18433.8877-.79077,1.17065ZM7.41206,5.87005h-.10498c-.03516,0-.04272.01758-.04272.03906v.28662c0,.02979.00928.04492.04187.04492.03235,0,.04175-.0188.04175-.04492v-.10938h.02771l.05859.10938c.01208.02246.02136.04492.05103.04492.03076,0,.0437-.01221.0437-.03271,0-.00537-.00195-.01221-.00562-.01953l-.06592-.10767c.05945-.00269.0929-.03613.0929-.10205,0-.08618-.06311-.10864-.13831-.10864ZM7.41756,6.01971h-.06958v-.08276h.06958c.03064,0,.04919.0083.04919.04175s-.01855.04102-.04919.04102ZM7.40181,5.7077c-.18848,0-.34167.15308-.34167.34155s.1532.34155.34167.34155.34167-.15308.34167-.34155-.1532-.34155-.34167-.34155ZM7.40181,6.30755c-.14307,0-.25806-.11523-.25806-.2583s.11499-.25806.25806-.25806c.14282,0,.25806.11499.25806.25806s-.11523.2583-.25806.2583ZM31.67183,5.7077c-.18848,0-.34155.15308-.34155.34155s.15308.34155.34155.34155.34167-.15308.34167-.34155-.1532-.34155-.34167-.34155ZM31.67183,6.30755c-.14307,0-.25818-.11523-.25818-.2583s.11511-.25806.25818-.25806c.14294,0,.25806.11499.25806.25806s-.11511.2583-.25806.2583ZM31.68208,5.87005h-.10498c-.03516,0-.04272.01758-.04272.03906v.28662c0,.02979.0094.04492.04187.04492.03235,0,.04163-.0188.04163-.04492v-.10938h.02795l.05847.10938c.01208.02246.02148.04492.05103.04492.03064,0,.0437-.01221.0437-.03271,0-.00537-.00183-.01221-.00562-.01953l-.06592-.10767c.05957-.00269.09277-.03613.09277-.10205,0-.08618-.06311-.10864-.13818-.10864ZM31.6877,6.01971h-.06982v-.08276h.06982c.0304,0,.04907.0083.04907.04175s-.01868.04102-.04907.04102Z" style="fill: #ffffff; stroke-width: 0px;"/>
</svg>