<svg width="144" height="46" viewBox="0 0 144 46" fill="none" xmlns="http://www.w3.org/2000/svg">
<g clip-path="url(#clip0_25_309)">
<path d="M20.9836 29.2256L12.9573 8.96746H0V36.764H9.69765V21.5182L15.728 36.764H26.2406L32.1892 21.6027V36.764H41.8862V8.96746H28.9297L20.9836 29.2256ZM67.477 21.7709C67.477 23.7926 66.9599 25.3727 65.9282 26.5091C64.8956 27.6463 63.4694 28.2153 61.6494 28.2153C59.8295 28.2153 58.4032 27.6463 57.3714 26.5091C56.3389 25.372 55.8233 23.7926 55.8233 21.7716V8.96746H45.4333V21.7708C45.4333 24.9158 46.0989 27.6531 47.43 29.9834C48.7612 32.3137 50.6487 34.1104 53.0934 35.3742C55.538 36.6381 58.3905 37.2693 61.6501 37.2693C64.9096 37.2693 67.7622 36.6373 70.2068 35.3742C72.6515 34.1112 74.5391 32.3138 75.871 29.9834C77.2021 27.6531 77.8669 24.9157 77.8669 21.7708V8.96746H67.477V21.7709ZM144 17.686V8.96751H115.763V36.7641H144V28.0462H126.153V25.1823H141.433V20.5501H126.153V17.686H144ZM115.94 0H95.8698L79.9163 24.9173H97.9128L83.5072 46L83.5688 45.9893L113.162 19.1394H98.7371L115.94 0Z" fill="#0D324D"/>
</g>
<defs>
<clipPath id="clip0_25_309">
<rect width="144" height="46" fill="white"/>
</clipPath>
</defs>
</svg>
