<svg width="101" height="30" viewBox="0 0 101 30" fill="none" xmlns="http://www.w3.org/2000/svg">
<g clip-path="url(#clip0_25_253)">
<path d="M7.76926 3.78683C9.4768 2.69289 11.4687 2.14591 13.7457 2.14591C16.2497 2.14591 18.37 2.77047 20.1064 4.01823C21.8417 5.26674 23.0232 7.04113 23.6493 9.34086H25.9547C25.3283 6.39555 23.9484 4.10966 21.814 2.48251C19.6795 0.85597 17.0326 0.0421193 13.8738 0.0421193C11.1129 0.0421193 8.67972 0.673257 6.57392 1.93553C4.46757 3.19781 2.84535 4.96494 1.70754 7.23706C0.568903 9.50919 0 12.1041 0 15.0211C0 17.9664 0.568903 20.5751 1.70754 22.8472C2.84535 25.1193 4.46757 26.8799 6.57392 28.1278C8.67972 29.3762 11.1129 30 13.8738 30C17.0607 30 19.7006 29.1868 21.7926 27.5597C23.8842 25.9332 25.2568 23.6328 25.9119 20.6593H23.6068C22.9804 23.0155 21.8206 24.811 20.1275 26.045C18.4342 27.2797 16.307 27.8963 13.7457 27.8963C11.4687 27.8963 9.4768 27.3493 7.76926 26.2554C6.06172 25.1613 4.73854 23.6401 3.79917 21.6901C2.86008 19.7408 2.39067 17.518 2.39067 15.0211C2.39067 12.5248 2.86008 10.302 3.79917 8.3521C4.73854 6.40281 6.06172 4.88084 7.76926 3.78683ZM39.1453 0.294548L27.6194 29.7476H30.0101L33.5958 20.7434H47.3416L50.9275 29.7476H53.4034L41.8774 0.294548H39.1453ZM34.2789 18.6396L40.4688 2.77705L46.6586 18.6396H34.2789ZM57.2022 29.7476H59.5074V0.294548H57.2022V29.7476ZM65.6544 29.7476H67.9596V0.294548H65.6544V29.7476ZM93.1244 17.4194C92.1992 16.3537 91.0327 15.5615 89.624 15.0421C88.2153 14.5234 86.5144 14.1099 84.5227 13.8009C82.559 13.4643 81.0149 13.1277 79.891 12.7911C78.7664 12.4545 77.8347 11.9075 77.0948 11.1501C76.3545 10.3928 75.985 9.3553 75.985 8.03653C75.985 6.15757 76.682 4.69149 78.0767 3.63959C79.4708 2.58769 81.3491 2.06174 83.7116 2.06174C85.9594 2.06174 87.8098 2.637 89.2611 3.78683C90.7125 4.93734 91.5663 6.47971 91.8224 8.41517L94.0849 8.37312C93.8568 5.84857 92.811 3.82237 90.9474 2.29315C89.0831 0.764611 86.6711 0 83.7116 0C81.7193 0 79.9617 0.336593 78.4396 1.00985C76.9168 1.68303 75.7429 2.637 74.9178 3.87099C74.0921 5.10567 73.6798 6.53621 73.6798 8.16274C73.6798 9.92994 74.1207 11.3256 75.0032 12.3493C75.8849 13.3735 76.9948 14.131 78.3328 14.6214C79.6702 15.1125 81.3351 15.526 83.3275 15.8626C85.2337 16.1716 86.7993 16.5148 88.0232 16.8935C89.2465 17.2721 90.2496 17.8546 91.0327 18.6396C91.8152 19.4252 92.2066 20.491 92.2066 21.8374C92.2066 23.717 91.4736 25.1969 90.0081 26.2764C88.5421 27.3566 86.5858 27.8963 84.1385 27.8963C81.6052 27.8963 79.5422 27.2441 77.9486 25.9398C76.3545 24.6354 75.4868 22.8755 75.3446 20.6593H73.0394C73.1249 22.5106 73.6297 24.145 74.5549 25.5611C75.4794 26.9779 76.7601 28.0719 78.3969 28.843C80.033 29.6149 81.9327 30 84.0958 30C86.1728 30 87.9945 29.6497 89.56 28.9482C91.1248 28.2474 92.3414 27.2651 93.2098 26.0029C94.0776 24.7406 94.5118 23.2962 94.5118 21.6691C94.5118 19.9019 94.049 18.4858 93.1244 17.4194Z" fill="#0D324D"/>
<path d="M98.2038 27.2231C98.5027 26.943 98.8936 26.8023 99.3777 26.8023C99.8613 26.8023 100.253 26.943 100.552 27.2231C100.851 27.5038 101 27.8825 101 28.3591C101 28.8364 100.851 29.2217 100.552 29.5162C100.253 29.8108 99.8613 29.9579 99.3777 29.9579C98.8936 29.9579 98.5027 29.8108 98.2038 29.5162C97.905 29.2217 97.7556 28.8364 97.7556 28.3591C97.7556 27.8825 97.905 27.5038 98.2038 27.2231Z" fill="#FF1654"/>
</g>
<defs>
<clipPath id="clip0_25_253">
<rect width="101" height="30" fill="white"/>
</clipPath>
</defs>
</svg>
